<svg xmlns="http://www.w3.org/2000/svg" width="32" height="32" viewBox="0 0 32 32" fill="none">
  <path d="M16.3249 0.897587C16.2817 0.553587 15.7169 0.553587 15.6753 0.897587C14.2625 12.2688 7.03845 14.6128 7.03845 22.5168C7.03845 27.4016 11.1409 31.36 16.0001 31.36C20.8593 31.36 24.9601 27.4 24.9601 22.5168C24.9601 14.6128 17.7377 12.2688 16.3249 0.897587ZM14.9601 13.4688C14.8641 13.8187 14.7633 14.1803 14.6577 14.5536C14.0161 16.832 13.2881 19.416 13.2881 22.4032C13.2881 24.0224 12.3313 24.5968 11.4385 24.5968C11.1944 24.596 10.953 24.547 10.7279 24.4528C10.5029 24.3585 10.2986 24.2208 10.1268 24.0475C9.955 23.8742 9.81906 23.6688 9.72676 23.4429C9.63445 23.2171 9.58759 22.9752 9.58885 22.7312C9.58885 19.2 11.2881 16.8928 12.7889 14.8592C13.2609 14.2224 13.7041 13.6192 14.0641 13.0192C14.2289 12.744 14.6721 12.7568 14.8737 13.0288C14.9681 13.1568 15.0001 13.32 14.9601 13.4688Z" fill="#DC6803"/>
</svg>